<?xml version="1.0" standalone="no"?>
<!DOCTYPE svg PUBLIC "-//W3C//DTD SVG 20010904//EN"
 "http://www.w3.org/TR/2001/REC-SVG-20010904/DTD/svg10.dtd">
<svg version="1.0" xmlns="http://www.w3.org/2000/svg"
 width="320.000000pt" height="320.000000pt" viewBox="0 0 320.000000 320.000000"
 preserveAspectRatio="xMidYMid meet">
<metadata>
Created by potrace 1.11, written by Peter Selinger 2001-2013
</metadata>
<g transform="translate(0.000000,320.000000) scale(0.100000,-0.100000)"
fill="#000000" stroke="none">
<path d="M0 1600 l0 -1600 1600 0 1600 0 0 1600 0 1600 -1600 0 -1600 0 0
-1600z m2110 936 c278 -159 513 -296 523 -304 16 -14 17 -56 17 -607 0 -551
-1 -593 -17 -607 -10 -8 -241 -142 -513 -298 -272 -156 -502 -287 -510 -292
-11 -7 -150 68 -527 285 -281 161 -519 299 -527 306 -14 12 -16 81 -16 606 0
526 2 594 16 606 29 24 1029 597 1039 596 6 -1 238 -132 515 -291z"/>
<path d="M1145 2479 c-247 -142 -451 -262 -453 -267 -2 -8 288 -182 303 -182
3 0 138 77 299 170 161 94 298 170 303 170 6 0 221 -112 479 -250 258 -137
472 -250 477 -250 4 0 7 71 7 158 l-1 157 -436 250 c-240 138 -457 262 -482
276 l-46 26 -450 -258z"/>
<path d="M1336 2131 c-250 -145 -257 -150 -234 -164 12 -8 331 -191 708 -407
377 -216 700 -401 718 -412 l32 -20 -2 322 -3 323 -475 253 c-261 140 -477
254 -480 254 -3 0 -122 -67 -264 -149z"/>
<path d="M630 1813 l1 -328 484 -257 c266 -142 489 -258 494 -258 11 0 507
284 524 299 5 5 -1329 779 -1495 868 -5 2 -8 -143 -8 -324z"/>
<path d="M630 1228 l1 -163 480 -275 c265 -151 484 -274 488 -273 6 1 709 404
862 493 l71 42 -154 88 c-135 77 -155 86 -173 75 -11 -7 -149 -87 -306 -178
l-287 -166 -487 260 c-268 142 -489 259 -491 259 -2 0 -4 -73 -4 -162z"/>
</g>
</svg>
